<svg width="138" height="138" viewBox="0 0 138 138" fill="none" xmlns="http://www.w3.org/2000/svg">
<path d="M129.511 68.5987L137.1 63.3444L129.705 58.8684L135.446 52.5437L126.591 49.7219L132.138 42.3269L123.77 40.3808L127.273 32.5966L117.931 32.6939L120.948 24.0339L112.385 24.8123L113.261 16.3469L104.406 19.266L104.601 10.0222L96.7194 13.4278L94.8706 5.05977L87.3783 10.606L84.7511 1.75146L78.2318 7.39504L73.9504 0L68.5014 7.58965L63.2471 0L58.8684 7.39504L52.5437 1.65415L49.7219 10.5087L42.3269 4.96246L40.3808 13.3305L32.5966 9.82762L32.6939 19.1687L24.0339 16.1523L24.8123 24.715L16.3469 23.8393L19.266 32.6939L10.0222 32.4993L13.4278 40.3808L5.05976 42.1323L10.606 49.6246L1.75146 52.2518L7.39505 58.7711L0 63.0525L7.58965 68.5014L0 73.7558L7.39505 78.2318L1.65415 84.5565L10.5087 87.3783L4.96247 94.7733L13.3305 96.7194L9.82763 104.504L19.1687 104.406L16.1523 113.066L24.715 112.288L23.8393 120.753L32.6939 117.834L32.4993 127.078L40.3808 123.672L42.1323 132.04L49.6246 126.494L52.2518 135.349L58.7711 129.705L63.0525 137.1L68.5014 129.511L73.7558 137.1L78.2318 129.705L84.5565 135.446L87.3783 126.591L94.676 132.138L96.6221 123.77L104.406 127.273L104.309 117.931L112.969 120.948L112.191 112.385L120.656 113.261L117.737 104.406L126.981 104.601L123.575 96.7194L131.943 94.9679L126.397 87.4756L135.251 84.8484L129.608 78.3291L137.003 74.0477L129.511 68.5987Z" fill="#EB2027"/>
<path d="M68.4987 126.786C100.796 126.786 126.978 100.604 126.978 68.3069C126.978 36.0097 100.796 9.82764 68.4987 9.82764C36.2016 9.82764 10.0195 36.0097 10.0195 68.3069C10.0195 100.604 36.2016 126.786 68.4987 126.786Z" fill="black"/>
<path d="M15.5664 67.9175H27.1455V79.4966H15.5664V67.9175ZM106.934 67.9175H118.513V79.4966H106.934V67.9175Z" fill="white"/>
<path d="M68.5046 101.487C86.8296 101.487 101.685 86.6319 101.685 68.3069C101.685 49.9818 86.8296 35.1265 68.5046 35.1265C50.1796 35.1265 35.3242 49.9818 35.3242 68.3069C35.3242 86.6319 50.1796 101.487 68.5046 101.487Z" fill="#EB2027"/>
<path d="M85.918 65.874H78.7175V74.9232C78.7175 75.7989 78.3283 76.2854 77.5499 76.2854C76.7715 76.2854 76.3823 75.8962 76.3823 74.9232V51.4731C76.3823 50.6947 76.7715 50.2082 77.5499 50.2082C78.3283 50.2082 78.7175 50.6947 78.7175 51.4731V59.7439H85.918V51.8623C85.918 47.9702 83.9719 45.1484 77.9391 45.1484C71.9063 45.1484 68.8899 47.4837 68.8899 51.8623V74.6313C68.8899 79.1072 71.809 81.3452 77.9391 81.3452C84.0692 81.3452 85.918 78.5234 85.918 74.6313V65.874ZM67.3331 51.8623C67.3331 47.4837 65.2897 45.1484 60.2299 45.1484H50.5969V81.2479H58.1866V67.3336H60.2299C65.1924 67.3336 67.3331 64.9983 67.3331 60.6196V51.8623ZM58.0893 62.1765V50.5001C59.8407 50.5001 60.5218 50.9866 60.5218 52.5435V60.2304C60.5218 61.69 59.8407 62.1765 58.0893 62.1765ZM27.7307 45.2457C29.1902 43.397 30.8444 42.4239 32.7904 43.397C34.0554 43.9808 34.7365 45.343 34.8338 46.8026C34.8338 48.0675 34.5419 49.5271 33.7635 50.9866L30.9417 56.5329L30.1632 56.1437C30.7471 54.5868 30.7471 54.2949 29.0929 53.5165L21.6006 49.7217C19.9464 48.846 19.6545 49.0406 18.8761 50.4028L18.0977 50.0136L21.114 43.9808C21.8925 42.5212 22.5736 41.6455 23.4493 41.0617C24.3251 40.5752 25.2981 40.4779 26.2711 40.9644C27.9253 41.7428 28.1199 43.7862 27.7307 45.2457ZM26.1738 47.581C27.1468 45.7322 26.563 44.5646 25.1035 43.7862C23.352 42.9105 22.1844 43.6889 21.6006 44.7592C21.3087 45.2457 21.3086 45.5376 21.3086 45.7322C21.3086 46.0242 21.5033 46.1215 21.9898 46.3161L25.7846 48.2621L26.1738 47.581ZM30.4552 50.792C31.9147 51.4731 32.5958 51.0839 33.1797 50.0136C33.6662 48.9433 33.277 47.3864 31.4282 46.4134C29.4821 45.4403 28.1199 45.9269 26.9522 48.1648L26.563 48.8459L30.4552 50.792Z" fill="white"/>
<path d="M39.214 23.8393C38.241 24.9096 38.241 25.4934 38.7275 26.0773C39.1167 26.5638 39.6033 27.2449 40.6736 28.3152L42.6197 30.4559C43.8846 31.9155 44.9549 33.4723 44.9549 35.3211C44.9549 36.7806 44.0792 38.2402 42.9116 39.2132C41.8412 40.1862 40.5763 40.9646 39.214 41.062C37.6572 41.2566 36.1976 40.5754 34.5435 38.824L30.7487 34.6399C29.3864 33.0831 29.0945 33.1804 27.7323 34.1534L27.1484 33.5696L32.2082 28.9964L32.792 29.5802C31.6244 30.8451 31.6244 31.0397 32.9866 32.5966L36.9761 36.9752C38.6302 38.824 40.7709 39.4078 42.5223 37.8509C44.4684 36.0995 43.8846 33.6669 41.6466 31.2343L39.7979 29.191L37.7545 27.0503C36.9761 26.3692 36.3922 26.5638 35.2246 27.5368L34.6408 26.953L38.7275 23.2555L39.214 23.8393ZM53.2257 20.9202C52.35 19.7526 51.1823 18.4876 49.2363 19.1687C48.0686 19.6553 47.5821 20.8229 48.0686 21.8932C48.4578 23.0609 49.5282 23.4501 51.6689 23.6447C54.296 23.9366 56.1448 24.4231 56.9232 26.4665C57.8963 28.8991 56.534 31.4289 53.5176 32.5966C52.1554 33.0831 50.8904 33.1804 49.8201 33.2777C49.5282 32.8885 48.3605 30.8451 47.7767 29.8721L48.5551 29.3856C49.4309 30.5532 51.5716 32.402 53.6149 31.6235C54.8799 31.137 55.4637 29.9694 54.9772 28.7044C54.4906 27.5368 53.323 27.1476 51.1823 26.8557C48.5552 26.5638 46.8037 26.0773 45.928 23.8393C45.0522 21.6986 46.1226 19.266 49.2363 18.0984C50.6958 17.5146 51.8635 17.4173 52.35 17.32L53.9068 20.3364L53.2257 20.9202ZM108.591 39.6997C109.37 38.4348 110.343 36.9752 108.98 35.4184C108.202 34.4453 106.937 34.348 105.964 35.1265C104.991 35.9049 104.991 36.9752 105.38 39.1159C105.964 41.7431 105.964 43.5918 104.31 44.9541C102.267 46.6082 99.4447 46.1217 97.4987 43.5918C96.6229 42.5215 96.1364 41.2566 95.7472 40.2835C96.0391 39.8943 97.596 38.1429 98.3744 37.3644L99.0555 37.9482C98.2771 39.1159 97.1095 41.7431 98.4717 43.4945C99.3474 44.5649 100.612 44.7595 101.683 43.8837C102.656 43.1053 102.656 41.7431 102.267 39.6997C101.78 37.1698 101.683 35.2238 103.531 33.8615C105.38 32.402 107.91 32.6939 109.953 35.2238C110.926 36.3914 111.413 37.559 111.608 37.9482L109.272 40.3808L108.591 39.6997ZM115.013 52.5437C116.181 51.5707 117.446 50.4031 116.667 48.5543C116.181 47.3867 115.013 46.9001 113.846 47.3867C112.678 47.8732 112.386 48.8462 112.191 51.0842C111.997 53.7114 111.51 55.5601 109.467 56.4359C107.034 57.4089 104.504 56.1439 103.24 53.2249C102.753 51.9599 102.558 50.5977 102.461 49.5273C102.85 49.2354 104.894 47.9705 105.769 47.484L106.256 48.1651C105.088 49.1381 103.337 51.2788 104.213 53.3222C104.699 54.5871 105.867 55.0736 107.229 54.5871C108.397 54.1006 108.786 52.8356 108.98 50.7923C109.272 48.1651 109.662 46.4136 111.802 45.5379C113.943 44.6622 116.375 45.6352 117.64 48.6516C118.224 50.1111 118.322 51.2788 118.516 51.7653L115.597 53.4195L115.013 52.5437ZM75.6054 120.169L75.4108 119.391C77.065 118.905 77.1623 118.71 76.8704 116.861L75.2162 108.298C74.827 106.45 74.6324 106.352 72.9782 106.547L72.7836 105.769L79.4976 104.406L79.6922 105.185C78.1353 105.671 77.9407 105.866 78.2326 107.715L79.8868 116.277C80.276 118.126 80.4706 118.126 82.1247 118.029L82.3194 118.807L75.6054 120.169ZM86.1142 18.1957C84.7519 18.0984 84.2654 18.293 84.0708 19.266L83.2924 22.6716L81.5409 31.6235L80.3733 31.3316L73.4648 18.3903L72.4917 23.2555L71.8106 26.953C71.7133 27.926 72.1025 28.5098 73.6594 28.8991L73.4648 29.8721L68.1131 28.8018L68.3077 28.0233C69.5726 28.1206 70.1565 27.926 70.5457 26.953C70.8376 26.1746 71.0322 25.1042 71.4214 23.2555L72.4917 18.0984C72.6863 17.4173 72.6863 16.9308 72.3944 16.2496C72.1025 15.6658 71.616 15.4712 70.7403 15.1793L70.9349 14.4009L75.1189 15.2766L81.4436 26.6611L82.3194 22.6716L82.9032 19.266C83.0005 18.293 82.8059 17.8065 80.9571 17.32L81.1517 16.5415L86.5034 17.6119L86.1142 18.1957ZM96.4283 36.0995C96.0391 36.4887 94.0931 38.3375 93.6065 38.7267L83.9735 32.402L84.3627 31.7208C86.1142 32.6939 86.3088 32.6939 87.3791 31.0397L92.0497 23.9366C93.12 22.3797 93.12 21.6986 91.8551 20.7256L92.3416 20.0445L101.196 25.8827L99.4447 28.9964L98.6663 28.6071C98.9582 27.8287 99.0555 27.1476 98.9582 26.6611C98.8609 26.0773 98.7636 25.8827 97.7906 25.2015L96.4283 24.2285C95.7472 23.742 95.6499 23.742 95.2607 24.4231L92.7308 28.6071L94.5796 29.7748C95.6499 30.4559 95.9418 30.2613 97.1094 29.191L97.7906 29.6775L95.1634 33.4723L94.4823 32.9858C95.0661 31.4289 94.9688 31.4289 93.9957 30.7478L92.0497 29.3856L90.0063 32.5966C89.1306 33.8615 88.936 34.2507 90.1036 35.0292L91.5632 36.0995C92.6335 36.7806 92.9254 36.8779 93.7038 36.586C94.4822 36.3914 95.358 35.9049 96.0391 35.5157L96.4283 36.0995ZM108.883 97.887L110.732 101.293L102.558 109.077L101.975 108.493C103.337 106.936 103.142 106.742 101.877 105.379L96.0391 99.3466C94.7742 97.9843 94.5796 98.0816 93.4119 99.0546L92.8281 98.5681L100.32 91.2704L102.753 93.4111L102.169 94.0922C101.488 93.703 101.002 93.4111 100.418 93.4111C99.8339 93.3138 99.6393 93.4111 98.7636 94.1895L97.4987 95.2598C96.9148 95.8436 96.8175 95.941 97.304 96.4275L100.612 99.8331L102.169 98.3735C103.045 97.4978 103.045 97.1086 102.169 95.7463L102.85 95.1625L105.867 98.6654L105.186 99.2493C103.823 98.2762 103.823 98.2762 102.85 99.152L101.293 100.612L103.921 103.433C104.991 104.601 105.283 104.893 106.353 103.92L107.521 102.947C108.397 102.071 108.591 101.779 108.494 101.001C108.494 100.125 108.202 99.2493 108.007 98.4708L108.883 97.887Z" fill="white"/>
<path d="M97.3061 108.396C97.5007 109.563 97.6953 111.315 97.6953 112.191C97.2088 112.58 95.7492 113.747 94.1924 114.429C88.7434 116.958 84.9486 114.429 83.489 111.218C81.543 107.034 83.489 102.752 88.2569 100.612C90.0084 99.8331 91.3706 99.6385 91.9544 99.4439C92.4409 100.32 93.414 101.682 93.9005 102.558L93.1221 103.044C91.9544 101.682 91.0787 101.195 89.8137 101.293C89.2299 101.293 88.7434 101.487 88.1596 101.779C85.2405 103.141 84.6567 106.352 86.1162 109.563C87.7704 113.261 90.9814 114.818 93.8032 113.553C95.4573 112.774 96.2357 111.315 96.3331 108.59L97.3061 108.396ZM34.2536 104.698C33.1833 105.185 31.5291 105.866 30.7507 106.061C30.2642 105.671 28.8046 104.601 27.637 103.336C23.7449 98.8601 25.1071 94.4814 27.7343 92.1462C31.2372 89.1298 35.8105 89.8109 39.3134 93.8976C40.5783 95.3572 41.0648 96.6221 41.3568 97.1086C40.6756 97.887 39.6053 99.152 38.9242 99.8331L38.2431 99.2493C39.2161 97.7897 39.4107 96.7194 39.0215 95.5518C38.8269 94.9679 38.535 94.5787 38.1457 94.0922C36.1024 91.6596 32.7941 92.0488 30.1669 94.2868C27.0532 96.914 26.4694 100.417 28.4154 102.752C29.5831 104.212 31.2372 104.504 33.8644 103.823L34.2536 104.698ZM56.1468 105.963C54.59 105.282 54.2981 105.379 53.5196 106.936L49.4329 114.623C48.5572 116.277 48.6545 116.472 50.114 117.348L49.8221 118.029L43.7893 114.915L44.1785 114.234C45.8327 114.818 45.93 114.915 46.8057 113.358L48.7518 109.563L43.4001 106.644L41.4541 110.342C40.5783 111.996 40.6756 112.191 42.1352 113.066L41.746 113.747L36.0051 110.731L36.3943 110.05C37.9511 110.634 38.1458 110.731 39.0215 109.077L42.9136 101.487C43.7893 99.8331 43.5947 99.4439 42.1352 98.5682L42.5244 97.887L48.5572 101.098L48.168 101.876C46.6111 101.195 46.4165 101.293 45.5408 102.947L44.0812 105.769L49.5302 108.688L50.8925 105.866C51.7682 104.212 51.6709 104.017 50.2113 103.044L50.6006 102.363L56.7307 105.379L56.1468 105.963ZM64.5149 105.574C68.6017 105.671 71.8127 108.785 71.7154 113.164C71.5208 117.834 68.1151 120.753 63.9311 120.559C59.4551 120.364 56.4388 117.056 56.5361 112.774C56.6334 109.077 59.4552 105.477 64.5149 105.574ZM64.1257 106.547C61.8877 106.45 60.1363 108.59 60.039 112.58C59.9417 116.277 61.3039 119.586 64.3203 119.683C66.461 119.78 68.1151 117.737 68.3097 113.747C68.407 109.369 66.7529 106.644 64.1257 106.547ZM51.9628 88.9351H51.5736V91.3677H50.3086V84.8484H51.8655C53.0331 84.8484 53.7143 85.4322 53.7143 86.7945C53.7143 88.4486 53.1304 88.9351 51.9628 88.9351ZM51.7682 85.8214H51.5736V88.0594H51.8655C52.2547 88.0594 52.4493 87.7675 52.4493 86.9891C52.4493 86.1133 52.2547 85.8214 51.7682 85.8214ZM55.9522 91.5623C54.4927 91.5623 54.0062 90.7839 54.0062 88.3513C54.0062 85.8214 54.3954 84.9457 55.8549 84.9457C57.3145 84.9457 57.5091 85.8214 57.5091 86.8918C57.5091 87.0864 57.5091 87.281 57.5091 87.3783H56.3414C56.3414 87.1837 56.3414 86.9891 56.3414 86.8918C56.3414 86.1134 56.2441 85.6268 55.8549 85.6268C55.3684 85.6268 55.2711 86.0161 55.2711 88.254C55.2711 90.2974 55.3684 90.6866 55.9522 90.6866C56.4387 90.6866 56.5361 90.2001 56.5361 89.4217C56.5361 89.2271 56.5361 88.9352 56.5361 88.7405H57.7037C57.7037 88.9352 57.7037 89.1298 57.7037 89.3244C57.7037 90.8812 57.3145 91.5623 55.9522 91.5623ZM61.6931 91.465V88.5459V86.6972L61.4985 88.5459L61.012 91.465H59.9417L59.4552 88.5459L59.2605 86.6972V88.5459V91.465H58.0929V84.9457H59.6498L60.2336 88.254L60.4282 89.3244L61.2066 84.8484H62.7635V91.3677L61.6931 91.465ZM65.7799 91.465L65.5852 90.2974H64.7095L64.5149 91.465H63.3473L64.6122 84.9457H65.8772L67.2394 91.465H65.7799ZM65.0987 87.6702L65.0014 86.6972L64.9041 87.6702L64.7095 89.3244H65.3906C65.2933 89.4217 65.196 88.4486 65.0987 87.6702ZM70.2558 91.465L69.9639 90.9785C69.7693 91.3677 69.5747 91.5623 68.8936 91.5623C67.6286 91.5623 67.0448 90.8812 67.0448 88.4486C67.0448 85.6268 67.5313 84.8484 68.9909 84.8484C70.2558 84.8484 70.5477 85.5295 70.5477 86.7945C70.5477 86.8918 70.5477 87.0864 70.5477 87.1837H69.3801C69.3801 87.0864 69.3801 86.8918 69.3801 86.7945C69.3801 86.0161 69.2828 85.6268 68.8936 85.6268C68.3097 85.6268 68.3097 86.1134 68.3097 88.3513C68.3097 90.3947 68.407 90.6866 68.8936 90.6866C69.4774 90.6866 69.5747 90.2974 69.5747 89.4217V89.0325H68.8936V88.1567H70.645V91.5623L70.2558 91.465ZM71.2288 90.0055H72.5911V91.465H71.2288V90.0055ZM74.829 91.5623C73.3695 91.5623 72.883 90.7839 72.883 88.3513C72.883 85.8214 73.2722 84.9457 74.7317 84.9457C76.1913 84.9457 76.3859 85.8214 76.3859 86.8918C76.3859 87.0864 76.3859 87.281 76.3859 87.3783H75.2183C75.2183 87.1837 75.2183 86.9891 75.2183 86.8918C75.2183 86.1134 75.1209 85.6268 74.7317 85.6268C74.2452 85.6268 74.1479 86.0161 74.1479 88.254C74.1479 90.2974 74.2452 90.6866 74.829 90.6866C75.3156 90.6866 75.4129 90.2001 75.4129 89.4217C75.4129 89.2271 75.4129 88.9352 75.4129 88.7405H76.5805C76.5805 88.9352 76.5805 89.1298 76.5805 89.3244C76.5805 90.8812 76.1913 91.5623 74.829 91.5623ZM78.8185 91.5623C77.4562 91.5623 76.9697 90.9785 76.9697 88.254C76.9697 85.6268 77.5535 84.9457 78.8185 84.9457C80.0834 84.9457 80.7645 85.6268 80.7645 88.254C80.6672 90.9785 80.0834 91.5623 78.8185 91.5623ZM78.8185 85.7242C78.2347 85.7242 78.2347 86.4053 78.2347 88.254C78.2347 90.2001 78.332 90.7839 78.8185 90.7839C79.4023 90.7839 79.4023 90.2974 79.4023 88.254C79.4023 86.308 79.305 85.7242 78.8185 85.7242ZM84.6567 91.465V88.5459V86.6972L84.4621 88.5459L83.9755 91.465H82.9052L82.4187 88.5459L82.2241 86.6972V88.5459V91.465H81.1538V84.9457H82.7106L83.2944 88.254L83.489 89.3244L84.2675 84.8484H85.8243V91.3677L84.6567 91.465ZM59.4552 30.3586L59.3578 29.5802C61.012 29.191 61.2066 29.0937 60.9147 27.2449L59.7471 18.6823C59.4551 16.8335 59.2605 16.7362 57.6064 16.8335L57.5091 16.0551L64.3203 15.082L64.4176 15.8605C62.7635 16.2497 62.5689 16.4443 62.8608 18.293L64.0284 26.8557C64.3203 28.7045 64.5149 28.8018 66.1691 28.7045L66.2664 29.4829L59.4552 30.3586Z" fill="white"/>
<path d="M33.4745 61.3006C33.4745 61.3006 34.1556 60.5222 32.696 60.7168C31.6257 61.0087 30.3608 60.5222 28.512 63.2467L22.4792 72.3932C22.4792 72.3932 21.7008 73.5608 21.4089 72.2959L20.825 70.8363C20.825 70.8363 20.7277 69.6687 19.1709 70.5444L18.1979 71.2255C18.1979 71.2255 17.614 71.2255 17.906 72.5878L19.3655 76.5772C19.3655 76.5772 19.2682 77.2583 20.9224 77.0637C21.5062 77.0637 22.2846 77.2583 22.8684 75.9934L23.6469 74.7284C23.6469 74.8257 30.5554 64.1224 33.4745 61.3006ZM124.745 61.3006C124.745 61.3006 125.426 60.5222 123.966 60.7168C122.896 61.0087 121.631 60.5222 119.782 63.2467L113.75 72.3932C113.75 72.3932 112.971 73.5608 112.679 72.2959L112.095 70.8363C112.095 70.8363 111.998 69.6687 110.441 70.5444L109.468 71.2255C109.468 71.2255 108.884 71.2255 109.176 72.5878L110.636 76.5772C110.636 76.5772 110.539 77.2583 112.193 77.0637C112.777 77.0637 113.555 77.2583 114.139 75.9934L114.917 74.7284C114.917 74.8257 121.826 64.1224 124.745 61.3006Z" fill="#EB2027"/>
</svg>
