<svg width="29" height="85" viewBox="0 0 29 85" fill="none" xmlns="http://www.w3.org/2000/svg">
<path opacity="0.5" d="M13.1531 17.1669C13.1531 17.1669 12.9994 -1.02467 28.8296 0.0454244C28.2148 1.87987 23.7578 12.2751 13.1531 17.1669ZM11.4625 5.8545C11.4625 5.8545 -2.21597 14.721 5.77595 31.6896C7.00548 28.4793 7.62024 25.5748 8.84977 22.2116C9.77191 19.9186 11.7699 11.5107 11.4625 5.8545ZM6.39075 52.6329C6.39075 52.6329 -2.52333 51.5628 0.704173 29.3966C1.78001 30.7724 5.16119 34.1355 5.77595 43.9193L6.39075 52.6329ZM9.15717 33.5241C9.00348 33.8298 7.77395 16.5554 22.2209 17.1669C21.1451 17.9313 20.684 23.8932 15.6122 27.5621C15.7659 27.4092 10.233 31.6896 9.15717 33.5241ZM9.00342 51.7157C9.00342 51.7157 3.31692 39.0274 13.7679 33.0654C13.3068 34.747 14.5363 39.9446 13.4605 43.002C12.5383 45.9066 12.692 45.6008 9.00342 51.7157ZM2.85579 53.5501C2.85579 53.5501 2.24108 64.7096 11.4625 67.7671C8.84979 59.512 7.6202 57.0661 2.85579 53.5501ZM19.4545 78.7737C19.4545 78.7737 12.5384 80.4553 9.46457 70.0601C13.3068 70.9773 17.6102 73.8819 19.4545 78.7737ZM13.6141 65.474C13.6141 65.474 6.69813 55.996 12.5384 50.1869C12.6921 51.8685 16.688 59.0534 13.6141 65.474ZM16.5343 64.251C16.5343 64.251 12.8457 70.5187 20.5302 75.2577C20.5302 72.2003 20.8377 70.5187 16.5343 64.251ZM27.6001 84.8885C27.6001 84.8885 21.4524 86.1115 18.2249 80.4553C20.2229 80.6082 24.2189 79.2323 27.6001 84.8885ZM26.9853 81.0668C26.9853 81.0668 21.4524 78.9266 22.3745 73.5761C22.9893 74.1876 26.9853 76.1749 26.9853 81.0668Z" fill="white"/>
</svg>
