<svg width="182" height="44" viewBox="0 0 182 44" fill="none" xmlns="http://www.w3.org/2000/svg">
<path d="M45.7534 40.838C43.4102 40.838 41.3427 40.235 39.5509 39.0289C37.759 37.8229 36.3635 36.2034 35.3642 34.1703C34.3649 32.1028 33.8652 29.7769 33.8652 27.1925C33.8652 24.5047 34.451 22.1099 35.6226 20.0079C36.7942 17.8715 38.4482 16.183 40.5846 14.9425C42.7555 13.702 45.3054 13.0818 48.2344 13.0818C51.1978 13.0818 53.7133 13.702 55.7808 14.9425C57.8827 16.1486 59.485 17.8198 60.5877 19.9562C61.7248 22.0582 62.2934 24.4186 62.2934 27.0374V37.8382C62.2934 39.1524 61.228 40.2178 59.9138 40.2178H56.5561C55.3857 40.2178 54.4369 39.269 54.4369 38.0986V36.108C54.4369 36.0369 54.3793 35.9794 54.3083 35.9794C54.2603 35.9794 54.2163 36.0062 54.1939 36.0486C53.7168 36.9517 53.1086 37.7728 52.3694 38.5121C51.6113 39.2357 50.6809 39.8043 49.5783 40.2178C48.51 40.6313 47.2351 40.838 45.7534 40.838ZM48.131 33.9119C49.337 33.9119 50.388 33.619 51.2839 33.0332C52.2143 32.4129 52.9207 31.5687 53.4031 30.5005C53.8855 29.4323 54.1268 28.2435 54.1268 26.9341C54.1268 25.6591 53.8855 24.5047 53.4031 23.471C52.9207 22.4372 52.2143 21.6275 51.2839 21.0417C50.388 20.4214 49.337 20.1113 48.131 20.1113C46.8905 20.1113 45.8051 20.4214 44.8747 21.0417C43.9443 21.6275 43.2379 22.4372 42.7555 23.471C42.2731 24.5047 42.0319 25.6591 42.0319 26.9341C42.0319 28.2435 42.2731 29.4323 42.7555 30.5005C43.2379 31.5687 43.9443 32.4129 44.8747 33.0332C45.8051 33.619 46.8905 33.9119 48.131 33.9119Z" fill="#052973"/>
<path d="M102.549 40.2175C100.339 40.2175 98.5469 38.4257 98.5469 36.2155V28.4278C98.5469 26.2175 100.339 24.4258 102.549 24.4258C104.759 24.4258 106.551 26.2175 106.551 28.4278V36.2154C106.551 38.4257 104.759 40.2175 102.549 40.2175Z" fill="#052973"/>
<path d="M115.529 40.2177C113.319 40.2177 111.527 38.4259 111.527 36.2157V23.4526C111.527 21.2423 113.319 19.4506 115.529 19.4506C117.74 19.4506 119.531 21.2423 119.531 23.4526V36.2157C119.531 38.4259 117.74 40.2177 115.529 40.2177Z" fill="#34A853"/>
<path d="M68.694 36.5404C67.8576 36.5404 67.1797 35.8624 67.1797 35.0261V24.97C67.1797 22.7647 67.7138 20.7661 68.782 18.9743C69.8502 17.1825 71.3664 15.7524 73.3305 14.6842C75.3291 13.616 77.6895 13.0819 80.4117 13.0819C83.1684 13.0819 85.5115 13.616 87.4412 14.6842C89.4053 15.7524 90.9043 17.1825 91.938 18.9743C92.9718 20.7661 93.4886 22.7647 93.4886 24.97V35.0261C93.4886 35.8624 92.8107 36.5404 91.9744 36.5404L89.4829 36.5404L86.9913 36.5404C86.155 36.5404 85.4771 35.8624 85.4771 35.0261V25.1768C85.4771 24.2464 85.2531 23.4022 84.8051 22.6441C84.3572 21.8516 83.7369 21.2313 82.9444 20.7834C82.1863 20.3009 81.3248 20.0597 80.36 20.0597C79.3607 20.0597 78.4648 20.3009 77.6723 20.7834C76.9142 21.2313 76.3112 21.8516 75.8632 22.6441C75.4152 23.4022 75.1913 24.2464 75.1913 25.1768V35.0261C75.1913 35.8624 74.5133 36.5404 73.677 36.5404L71.1855 36.5404L68.694 36.5404Z" fill="#052973"/>
<rect x="67.1797" y="37.1893" width="8.004" height="3.02854" rx="1.51427" fill="#34A853"/>
<rect x="85.5664" y="37.1891" width="8.004" height="3.02854" rx="1.51427" fill="#F15B25"/>
<rect x="98.5488" y="13.8262" width="8.004" height="8.004" rx="4.002" fill="#34A853"/>
<rect x="111.525" y="13.8262" width="8.004" height="3.02854" rx="1.51427" fill="#052973"/>
<circle cx="156.087" cy="27.238" r="10.0591" stroke="#F15B25" stroke-width="7.1387"/>
<path d="M151.762 24.127L156.984 32.8811L159.675 30.9642L158.106 25.1494C167.155 20.913 172.529 18.7119 181.398 12.114C178.11 14.2773 157.386 23.3629 151.762 24.127Z" fill="#34A853"/>
<path d="M128.512 40.217C126.299 40.217 124.506 38.4235 124.506 36.2112V21.5061C124.506 19.094 125.195 17.1988 126.573 15.8204C127.952 14.4421 129.864 13.7529 132.311 13.7529H136.756C138.554 13.7529 140.012 15.2108 140.012 17.0092C140.012 18.8077 138.554 20.2656 136.756 20.2656H134.275C133.792 20.2656 133.379 20.4379 133.034 20.7824C132.69 21.0926 132.517 21.5061 132.517 22.0229V36.2112C132.517 38.4235 130.724 40.217 128.512 40.217Z" fill="#052973"/>
<path fill-rule="evenodd" clip-rule="evenodd" d="M3.20598 7.48096L22.626 0.184342C23.2364 -0.0450311 23.859 -0.0497519 24.4413 0.111587L32.0545 40.0095C31.5719 40.3741 30.9912 40.599 30.34 40.6104L9.5976 40.9783C7.44355 41.0169 5.42584 40.0431 5.03596 38.0006L0.0613963 11.9293C-0.328483 9.88688 1.18799 8.23906 3.20598 7.48096ZM25.3899 0.538676C25.5249 0.624761 25.9567 0.996034 26.0814 1.09906L33.2153 38.4869C33.1372 38.6285 32.8723 39.1328 32.779 39.2625L25.3899 0.538676ZM26.0814 1.09906C26.6359 1.65972 27.04 2.3856 27.188 3.16231L33.4849 36.1623C33.6329 36.9382 33.5246 37.7618 33.2153 38.4869L26.0814 1.09906Z" fill="url(#paint0_linear_878_815)"/>
<g filter="url(#filter0_d_878_815)">
<path d="M15.5571 20.6842L20.0638 20.901C24.9984 21.1402 26.6967 23.7437 27.1651 26.401C27.8899 30.5133 25.3306 34.1282 19.0672 35.2322C12.4874 36.3919 8.96555 33.6206 8.53065 31.1531C8.30763 29.8878 9.06889 28.8404 10.3342 28.6173C13.1496 28.1211 13.1469 32.3617 18.3981 31.4362C21.087 30.9622 22.3117 29.2134 22.0441 27.695C21.8824 26.7776 21.2611 25.8434 19.4115 25.7127L13.2972 25.2574C8.37193 24.8861 7.06061 22.4427 6.63129 20.0069C5.73918 14.9455 10.0864 12.2223 14.4835 11.4473C18.5326 10.7336 23.7108 12.1693 24.246 15.2061C24.4746 16.5031 23.5013 17.4575 22.2359 17.6805C19.8318 18.1043 19.678 14.6414 14.8381 15.4945C12.4339 15.9182 11.3004 17.2596 11.5792 18.8413C11.858 20.4229 13.8452 20.5945 15.5571 20.6842Z" fill="white"/>
</g>
<circle cx="174.2" cy="7.15021" r="2.22086" stroke="#052973" stroke-width="0.541672"/>
<path d="M173.167 7.74186V5.79706C173.167 5.54125 173.3 5.46066 173.503 5.46066H174.46C175.143 5.46066 175.325 5.8356 175.325 6.16149C175.325 6.43481 175.164 6.70463 174.891 6.7677V6.77471C175.185 6.81676 175.238 7.03052 175.238 7.28632C175.238 7.57716 175.315 7.68579 175.315 7.80493C175.315 7.93809 175.178 8.0292 175.045 8.0292C174.73 8.0292 174.705 7.72434 174.705 7.62272C174.705 7.18119 174.624 7.00248 174.309 7.00248H173.741V7.74186C173.741 7.91356 173.629 8.0292 173.454 8.0292C173.279 8.0292 173.167 7.91356 173.167 7.74186ZM173.741 5.90218V6.58198H174.316C174.533 6.58198 174.751 6.52592 174.751 6.24208C174.751 5.97226 174.586 5.90218 174.334 5.90218H173.741Z" fill="#052973"/>
<defs>
<filter id="filter0_d_878_815" x="4.86531" y="9.72998" width="23.5663" height="28.0739" filterUnits="userSpaceOnUse" color-interpolation-filters="sRGB">
<feFlood flood-opacity="0" result="BackgroundImageFix"/>
<feColorMatrix in="SourceAlpha" type="matrix" values="0 0 0 0 0 0 0 0 0 0 0 0 0 0 0 0 0 0 127 0" result="hardAlpha"/>
<feOffset dx="-0.476483" dy="0.893407"/>
<feComposite in2="hardAlpha" operator="out"/>
<feColorMatrix type="matrix" values="0 0 0 0 0 0 0 0 0 0.0818182 0 0 0 0 0.25 0 0 0 1 0"/>
<feBlend mode="normal" in2="BackgroundImageFix" result="effect1_dropShadow_878_815"/>
<feBlend mode="normal" in="SourceGraphic" in2="effect1_dropShadow_878_815" result="shape"/>
</filter>
<linearGradient id="paint0_linear_878_815" x1="30.3114" y1="19.5139" x2="-3.5747" y2="25.7847" gradientUnits="userSpaceOnUse">
<stop stop-color="#052973"/>
<stop offset="1" stop-color="#052973"/>
</linearGradient>
</defs>
</svg>
