<svg width="107" height="100" viewBox="0 0 107 100" fill="none" xmlns="http://www.w3.org/2000/svg">
<circle cx="2.58306" cy="2.58491" r="2.58491" transform="rotate(90 2.58306 2.58491)" fill="#F69F7F"/>
<circle cx="2.58306" cy="29.4677" r="2.58491" transform="rotate(90 2.58306 29.4677)" fill="#F69F7F"/>
<circle cx="2.58306" cy="56.3505" r="2.58491" transform="rotate(90 2.58306 56.3505)" fill="#F69F7F"/>
<circle cx="2.58306" cy="83.2353" r="2.58491" transform="rotate(90 2.58306 83.2353)" fill="#F69F7F"/>
<circle cx="2.58306" cy="16.0283" r="2.58491" transform="rotate(90 2.58306 16.0283)" fill="#F69F7F"/>
<circle cx="2.58306" cy="42.9111" r="2.58491" transform="rotate(90 2.58306 42.9111)" fill="#F69F7F"/>
<circle cx="2.58306" cy="69.7919" r="2.58491" transform="rotate(90 2.58306 69.7919)" fill="#F69F7F"/>
<circle cx="2.58306" cy="96.6748" r="2.58491" transform="rotate(90 2.58306 96.6748)" fill="#F69F7F"/>
<circle cx="17.0596" cy="2.58491" r="2.58491" transform="rotate(90 17.0596 2.58491)" fill="#F69F7F"/>
<circle cx="17.0596" cy="29.4677" r="2.58491" transform="rotate(90 17.0596 29.4677)" fill="#F69F7F"/>
<circle cx="17.0596" cy="56.3505" r="2.58491" transform="rotate(90 17.0596 56.3505)" fill="#F69F7F"/>
<circle cx="17.0596" cy="83.2353" r="2.58491" transform="rotate(90 17.0596 83.2353)" fill="#F69F7F"/>
<circle cx="17.0596" cy="16.0283" r="2.58491" transform="rotate(90 17.0596 16.0283)" fill="#F69F7F"/>
<circle cx="17.0596" cy="42.9111" r="2.58491" transform="rotate(90 17.0596 42.9111)" fill="#F69F7F"/>
<circle cx="17.0596" cy="69.7919" r="2.58491" transform="rotate(90 17.0596 69.7919)" fill="#F69F7F"/>
<circle cx="17.0596" cy="96.6748" r="2.58491" transform="rotate(90 17.0596 96.6748)" fill="#F69F7F"/>
<circle cx="31.5362" cy="2.58491" r="2.58491" transform="rotate(90 31.5362 2.58491)" fill="#F69F7F"/>
<circle cx="31.5362" cy="29.4677" r="2.58491" transform="rotate(90 31.5362 29.4677)" fill="#F69F7F"/>
<circle cx="31.5362" cy="56.3505" r="2.58491" transform="rotate(90 31.5362 56.3505)" fill="#F69F7F"/>
<circle cx="31.5362" cy="83.2353" r="2.58491" transform="rotate(90 31.5362 83.2353)" fill="#F69F7F"/>
<circle cx="31.5362" cy="16.0283" r="2.58491" transform="rotate(90 31.5362 16.0283)" fill="#F69F7F"/>
<circle cx="31.5362" cy="42.9111" r="2.58491" transform="rotate(90 31.5362 42.9111)" fill="#F69F7F"/>
<circle cx="31.5362" cy="69.7919" r="2.58491" transform="rotate(90 31.5362 69.7919)" fill="#F69F7F"/>
<circle cx="31.5362" cy="96.6748" r="2.58491" transform="rotate(90 31.5362 96.6748)" fill="#F69F7F"/>
<circle cx="46.0127" cy="2.58491" r="2.58491" transform="rotate(90 46.0127 2.58491)" fill="#F69F7F"/>
<circle cx="46.0127" cy="29.4677" r="2.58491" transform="rotate(90 46.0127 29.4677)" fill="#F69F7F"/>
<circle cx="46.0127" cy="56.3505" r="2.58491" transform="rotate(90 46.0127 56.3505)" fill="#F69F7F"/>
<circle cx="46.0127" cy="83.2353" r="2.58491" transform="rotate(90 46.0127 83.2353)" fill="#F69F7F"/>
<circle cx="46.0127" cy="16.0283" r="2.58491" transform="rotate(90 46.0127 16.0283)" fill="#F69F7F"/>
<circle cx="46.0127" cy="42.9111" r="2.58491" transform="rotate(90 46.0127 42.9111)" fill="#F69F7F"/>
<circle cx="46.0127" cy="69.7919" r="2.58491" transform="rotate(90 46.0127 69.7919)" fill="#F69F7F"/>
<circle cx="46.0127" cy="96.6748" r="2.58491" transform="rotate(90 46.0127 96.6748)" fill="#F69F7F"/>
<circle cx="60.4854" cy="2.58491" r="2.58491" transform="rotate(90 60.4854 2.58491)" fill="#F69F7F"/>
<circle cx="60.4854" cy="29.4677" r="2.58491" transform="rotate(90 60.4854 29.4677)" fill="#F69F7F"/>
<circle cx="60.4854" cy="56.3505" r="2.58491" transform="rotate(90 60.4854 56.3505)" fill="#F69F7F"/>
<circle cx="60.4854" cy="83.2353" r="2.58491" transform="rotate(90 60.4854 83.2353)" fill="#F69F7F"/>
<circle cx="60.4854" cy="16.0283" r="2.58491" transform="rotate(90 60.4854 16.0283)" fill="#F69F7F"/>
<circle cx="60.4854" cy="42.9111" r="2.58491" transform="rotate(90 60.4854 42.9111)" fill="#F69F7F"/>
<circle cx="60.4854" cy="69.7919" r="2.58491" transform="rotate(90 60.4854 69.7919)" fill="#F69F7F"/>
<circle cx="60.4854" cy="96.6748" r="2.58491" transform="rotate(90 60.4854 96.6748)" fill="#F69F7F"/>
<circle cx="74.962" cy="2.58491" r="2.58491" transform="rotate(90 74.962 2.58491)" fill="#F69F7F"/>
<circle cx="74.962" cy="29.4677" r="2.58491" transform="rotate(90 74.962 29.4677)" fill="#F69F7F"/>
<circle cx="74.962" cy="56.3505" r="2.58491" transform="rotate(90 74.962 56.3505)" fill="#F69F7F"/>
<circle cx="74.962" cy="83.2353" r="2.58491" transform="rotate(90 74.962 83.2353)" fill="#F69F7F"/>
<circle cx="74.962" cy="16.0283" r="2.58491" transform="rotate(90 74.962 16.0283)" fill="#F69F7F"/>
<circle cx="74.962" cy="42.9111" r="2.58491" transform="rotate(90 74.962 42.9111)" fill="#F69F7F"/>
<circle cx="74.962" cy="69.7919" r="2.58491" transform="rotate(90 74.962 69.7919)" fill="#F69F7F"/>
<circle cx="74.962" cy="96.6748" r="2.58491" transform="rotate(90 74.962 96.6748)" fill="#F69F7F"/>
<circle cx="89.4385" cy="2.58491" r="2.58491" transform="rotate(90 89.4385 2.58491)" fill="#F69F7F"/>
<circle cx="89.4385" cy="29.4677" r="2.58491" transform="rotate(90 89.4385 29.4677)" fill="#F69F7F"/>
<circle cx="89.4385" cy="56.3505" r="2.58491" transform="rotate(90 89.4385 56.3505)" fill="#F69F7F"/>
<circle cx="89.4385" cy="83.2353" r="2.58491" transform="rotate(90 89.4385 83.2353)" fill="#F69F7F"/>
<circle cx="89.4385" cy="16.0283" r="2.58491" transform="rotate(90 89.4385 16.0283)" fill="#F69F7F"/>
<circle cx="89.4385" cy="42.9111" r="2.58491" transform="rotate(90 89.4385 42.9111)" fill="#F69F7F"/>
<circle cx="89.4385" cy="69.7919" r="2.58491" transform="rotate(90 89.4385 69.7919)" fill="#F69F7F"/>
<circle cx="89.4385" cy="96.6748" r="2.58491" transform="rotate(90 89.4385 96.6748)" fill="#F69F7F"/>
<circle cx="103.915" cy="2.58491" r="2.58491" transform="rotate(90 103.915 2.58491)" fill="#F69F7F"/>
<circle cx="103.915" cy="29.4677" r="2.58491" transform="rotate(90 103.915 29.4677)" fill="#F69F7F"/>
<circle cx="103.915" cy="56.3505" r="2.58491" transform="rotate(90 103.915 56.3505)" fill="#F69F7F"/>
<circle cx="103.915" cy="83.2353" r="2.58491" transform="rotate(90 103.915 83.2353)" fill="#F69F7F"/>
<circle cx="103.915" cy="16.0283" r="2.58491" transform="rotate(90 103.915 16.0283)" fill="#F69F7F"/>
<circle cx="103.915" cy="42.9111" r="2.58491" transform="rotate(90 103.915 42.9111)" fill="#F69F7F"/>
<circle cx="103.915" cy="69.7919" r="2.58491" transform="rotate(90 103.915 69.7919)" fill="#F69F7F"/>
<circle cx="103.915" cy="96.6748" r="2.58491" transform="rotate(90 103.915 96.6748)" fill="#F69F7F"/>
</svg>
