<svg width="55" height="54" viewBox="0 0 55 54" fill="none" xmlns="http://www.w3.org/2000/svg">
<path d="M31.041 53.3607V30.8887H53.513" fill="white"/>
<path d="M31.041 53.3607V30.8887H53.513" stroke="black" stroke-width="1.07045" stroke-linecap="round" stroke-linejoin="round"/>
<path d="M53.5133 30.8887V53.3607H35.6367" fill="white"/>
<path d="M53.5133 30.8887V53.3607H35.6367" stroke="black" stroke-width="1.07045" stroke-linecap="round" stroke-linejoin="round"/>
<path d="M31.041 11.9708V8.41797H53.513V30.89H31.041V25.9809" fill="#FFCF1E"/>
<path d="M31.041 11.9708V8.41797H53.513V30.89H31.041V25.9809" stroke="black" stroke-width="1.07045" stroke-linecap="round" stroke-linejoin="round"/>
<path d="M21.443 30.8887H31.0402V53.3607H8.57031V30.8887" fill="#FFCF1E"/>
<path d="M21.443 30.8887H31.0402V53.3607H8.57031V30.8887" stroke="black" stroke-width="1.07045" stroke-linecap="round" stroke-linejoin="round"/>
<path d="M24.4568 8.31192L32.2278 19.4061L18.2412 29.2007L15.2606 31.2881L13.816 32.2954L0.927734 13.8874L19.3352 0.998047L21.2348 3.71058" stroke="black" stroke-width="1.07045" stroke-linecap="round" stroke-linejoin="round"/>
<path d="M41.5449 49.3641L41.0729 47.3671L40.7737 47.2799C40.3981 47.1715 40.0355 47.0222 39.6925 46.8346L39.4185 46.6842L37.6752 47.7616L36.6401 46.7265L37.717 44.9827L37.5661 44.7097C37.3788 44.3662 37.2294 44.0033 37.1207 43.6275L37.0335 43.3289L35.0371 42.8568V41.3924L37.0335 40.9209L37.1207 40.6217C37.2295 40.2462 37.3788 39.8837 37.5661 39.5405L37.717 39.2665L36.6401 37.5227L37.6752 36.4876L39.4185 37.5645L39.6925 37.4141C40.0358 37.2266 40.3985 37.0773 40.7742 36.9688L41.0729 36.8815L41.5449 34.8846H43.0088L43.4808 36.8815L43.78 36.9688C44.1558 37.0772 44.5185 37.2266 44.8617 37.4141L45.1352 37.5645L46.879 36.4876L47.9131 37.5227L46.8367 39.2665L46.9871 39.5405C47.1747 39.8833 47.324 40.2457 47.4324 40.6211L47.5191 40.9209L49.5166 41.3924V42.8568L47.5191 43.3289L47.4324 43.628C47.3238 44.0037 47.1745 44.3664 46.9871 44.7097L46.8367 44.9827L47.9131 46.7265L46.879 47.7616L45.1352 46.6842L44.8617 46.8346C44.5186 47.0219 44.1561 47.1713 43.7806 47.2799L43.4808 47.3671L43.0088 49.3641H41.5449Z" fill="white"/>
<path d="M42.5855 35.4201L42.8884 36.7014L43.0319 37.3083L43.6308 37.4828C43.9686 37.5804 44.2947 37.7146 44.6033 37.8832L45.1508 38.184L45.6818 37.8559L46.7999 37.1654L47.2355 37.6016L46.5456 38.7197L46.2175 39.2507L46.5183 39.7977C46.6868 40.1065 46.821 40.4328 46.9187 40.7707L47.0932 41.3696L47.7001 41.5131L48.9814 41.816V42.4331L47.7001 42.7361L47.0932 42.8795L46.9187 43.4784C46.821 43.8164 46.6868 44.1426 46.5183 44.4515L46.2175 44.9985L46.5456 45.5294L47.2355 46.6475L46.7999 47.0832L45.6818 46.3933L45.1508 46.0652L44.6033 46.366C44.2947 46.5345 43.9686 46.6688 43.6308 46.7663L43.0319 46.9408L42.8884 47.5478L42.5855 48.8291H41.9689L41.666 47.5478L41.5225 46.9408L40.9236 46.7663C40.5857 46.6687 40.2594 46.5344 39.9506 46.366L39.4036 46.0652L38.8726 46.3933L37.7545 47.0832L37.3183 46.6475L38.0088 45.5294L38.3369 44.9985L38.0361 44.4509C37.8675 44.1423 37.7333 43.8162 37.6357 43.4784L37.4612 42.8795L36.8543 42.7361L35.5729 42.4331V41.816L36.8543 41.5131L37.4618 41.3696L37.6357 40.7707C37.7334 40.4328 37.8676 40.1065 38.0361 39.7977L38.3369 39.2507L38.0088 38.7197L37.3183 37.6016L37.7545 37.1654L38.8726 37.8559L39.4036 38.184L39.9506 37.8832C40.2593 37.7147 40.5856 37.5804 40.9236 37.4828L41.5225 37.3083L41.666 36.7014L41.9689 35.4201H42.5855ZM43.4322 34.3496H41.1216L40.6239 36.4552C40.2107 36.5745 39.8118 36.7389 39.4346 36.9455L37.5961 35.8097L35.9621 37.4438L37.0978 39.2823C36.8912 39.6595 36.7268 40.0583 36.6075 40.4715L34.502 40.9693V43.2799L36.6075 43.7776C36.7268 44.1916 36.8914 44.5911 37.0983 44.969L35.9626 46.8075L37.5966 48.4416L39.4351 47.3058C39.8124 47.5124 40.2112 47.6768 40.6244 47.7961L41.1222 49.9017H43.4327L43.9305 47.7961C44.3437 47.6768 44.7426 47.5124 45.1198 47.3058L46.9583 48.4416L48.5923 46.8075L47.456 44.969C47.6626 44.5918 47.827 44.193 47.9463 43.7798L50.0519 43.282V40.9693L47.9463 40.4715C47.827 40.0583 47.6626 39.6595 47.456 39.2823L48.5918 37.4438L46.9577 35.8097L45.1192 36.9455C44.742 36.7389 44.3432 36.5745 43.93 36.4552L43.4322 34.3496Z" fill="black"/>
<path d="M42.2755 45.1654C41.674 45.1653 41.086 44.9868 40.5859 44.6526C40.0857 44.3183 39.696 43.8433 39.4658 43.2875C39.2357 42.7317 39.1755 42.1202 39.2928 41.5302C39.4102 40.9402 39.6999 40.3983 40.1253 39.9729C40.5506 39.5476 41.0926 39.2579 41.6825 39.1405C42.2725 39.0231 42.8841 39.0833 43.4398 39.3135C43.9956 39.5436 44.4707 39.9334 44.8049 40.4335C45.1392 40.9336 45.3177 41.5216 45.3178 42.1232C45.3169 42.9298 44.9961 43.7031 44.4258 44.2734C43.8554 44.8438 43.0821 45.1646 42.2755 45.1654Z" fill="white"/>
<path d="M42.2761 39.6173C42.7719 39.6173 43.2565 39.7643 43.6687 40.0397C44.0808 40.3152 44.4021 40.7066 44.5918 41.1646C44.7815 41.6226 44.8312 42.1266 44.7344 42.6128C44.6377 43.099 44.399 43.5456 44.0485 43.8961C43.6979 44.2467 43.2513 44.4854 42.7651 44.5821C42.2789 44.6788 41.775 44.6292 41.317 44.4395C40.859 44.2498 40.4675 43.9285 40.1921 43.5163C39.9167 43.1041 39.7697 42.6195 39.7697 42.1238C39.7705 41.4593 40.0349 40.8223 40.5047 40.3524C40.9746 39.8825 41.6116 39.6182 42.2761 39.6173ZM42.2761 38.5469C41.5687 38.5469 40.8771 38.7567 40.2889 39.1497C39.7007 39.5427 39.2422 40.1014 38.9715 40.755C38.7008 41.4086 38.6299 42.1278 38.7679 42.8216C38.906 43.5155 39.2466 44.1528 39.7469 44.6531C40.2471 45.1533 40.8845 45.494 41.5783 45.632C42.2722 45.77 42.9914 45.6992 43.645 45.4284C44.2986 45.1577 44.8572 44.6992 45.2502 44.111C45.6433 43.5228 45.8531 42.8312 45.8531 42.1238C45.8531 41.1751 45.4762 40.2653 44.8054 39.5945C44.1346 38.9237 43.2248 38.5469 42.2761 38.5469Z" fill="black"/>
</svg>
