<svg width="51" height="55" viewBox="0 0 51 55" fill="none" xmlns="http://www.w3.org/2000/svg">
<path d="M33.3262 54.36V49.8105H49.5756V54.36" fill="#F19A95"/>
<path d="M49.0409 33.668V38.6788C49.0409 39.5305 48.7026 40.3473 48.1003 40.9495C47.4981 41.5518 46.6813 41.8901 45.8296 41.8901H31.25" stroke="black" stroke-width="1.60568" stroke-linecap="round" stroke-linejoin="round"/>
<path d="M49.0391 10.0547V28.4472" stroke="black" stroke-width="1.07045" stroke-linecap="round" stroke-linejoin="round"/>
<path d="M25.2133 41.8889H4.12542C3.27372 41.8889 2.45689 41.5505 1.85465 40.9483C1.2524 40.346 0.914062 39.5292 0.914062 38.6775V4.49847C0.914062 3.64676 1.2524 2.82994 1.85465 2.22769C2.45689 1.62545 3.27372 1.28711 4.12542 1.28711H45.8297C46.6814 1.28711 47.4983 1.62545 48.1005 2.22769C48.7028 2.82994 49.0411 3.64676 49.0411 4.49847V5.63689" stroke="black" stroke-width="1.07045" stroke-linecap="round" stroke-linejoin="round"/>
<path d="M1.44727 10.0546H49.0391" stroke="black" stroke-width="1.07045" stroke-linecap="round" stroke-linejoin="round"/>
<path d="M22.3946 16.5117H6.42188V25.8937H22.3946V16.5117Z" fill="#F19A95"/>
<path d="M6.42188 30.127H22.3946" stroke="black" stroke-width="1.07045" stroke-linecap="round" stroke-linejoin="round"/>
<path d="M6.42188 34.3633H22.3946" stroke="black" stroke-width="1.07045" stroke-linecap="round" stroke-linejoin="round"/>
<path d="M40.0485 24.167H32.2749C31.4887 24.167 30.7347 23.8547 30.1788 23.2987C29.6229 22.7428 29.3105 21.9888 29.3105 21.2026C29.3105 20.4164 29.6229 19.6624 30.1788 19.1065C30.7347 18.5506 31.4887 18.2383 32.2749 18.2383H40.0485C40.8347 18.2383 41.5887 18.5506 42.1446 19.1065C42.7006 19.6624 43.0129 20.4164 43.0129 21.2026C43.0129 21.9888 42.7006 22.7428 42.1446 23.2987C41.5887 23.8547 40.8347 24.167 40.0485 24.167Z" fill="#F19A95"/>
<path d="M7.49247 5.7228C7.49247 5.51108 7.42969 5.30412 7.31207 5.12809C7.19444 4.95205 7.02726 4.81485 6.83166 4.73383C6.63606 4.65281 6.42083 4.63161 6.21318 4.67291C6.00553 4.71422 5.8148 4.81617 5.6651 4.96587C5.51539 5.11558 5.41344 5.30631 5.37213 5.51396C5.33083 5.72161 5.35202 5.93684 5.43304 6.13244C5.51406 6.32804 5.65127 6.49522 5.82731 6.61285C6.00334 6.73047 6.21031 6.79325 6.42202 6.79325C6.70592 6.79325 6.9782 6.68047 7.17895 6.47972C7.3797 6.27897 7.49247 6.0067 7.49247 5.7228Z" fill="black"/>
<path d="M11.4866 5.7228C11.4866 5.51108 11.4238 5.30412 11.3062 5.12809C11.1886 4.95205 11.0214 4.81485 10.8258 4.73383C10.6302 4.65281 10.415 4.63161 10.2073 4.67291C9.99967 4.71422 9.80894 4.81617 9.65924 4.96587C9.50953 5.11558 9.40758 5.30631 9.36627 5.51396C9.32497 5.72161 9.34616 5.93684 9.42718 6.13244C9.5082 6.32804 9.64541 6.49522 9.82145 6.61285C9.99748 6.73047 10.2044 6.79325 10.4162 6.79325C10.7001 6.79325 10.9723 6.68047 11.1731 6.47972C11.3738 6.27897 11.4866 6.0067 11.4866 5.7228Z" fill="black"/>
<path d="M15.4788 5.7228C15.4788 5.51108 15.416 5.30412 15.2984 5.12809C15.1808 4.95205 15.0136 4.81485 14.818 4.73383C14.6224 4.65281 14.4072 4.63161 14.1995 4.67291C13.9919 4.71422 13.8011 4.81617 13.6514 4.96587C13.5017 5.11558 13.3998 5.30631 13.3585 5.51396C13.3172 5.72161 13.3384 5.93684 13.4194 6.13244C13.5004 6.32804 13.6376 6.49522 13.8136 6.61285C13.9897 6.73047 14.1966 6.79325 14.4083 6.79325C14.6922 6.79325 14.9645 6.68047 15.1653 6.47972C15.366 6.27897 15.4788 6.0067 15.4788 5.7228Z" fill="black"/>
<path d="M33.3262 53.5584V49.8086H49.5756V53.5584" stroke="black" stroke-width="1.07045" stroke-linecap="round" stroke-linejoin="round"/>
<path d="M33.8134 46.9057L32.0632 45.3536C31.189 44.568 30.5123 43.5873 30.0882 42.4912L27.5726 35.5536C27.4713 35.2708 27.4792 34.9604 27.5948 34.6831C27.7105 34.4059 27.9255 34.1819 28.1978 34.055C28.4827 33.9221 28.7933 33.8538 29.1077 33.8548C29.5084 33.8565 29.9009 33.9682 30.2426 34.1776C30.5842 34.387 30.8618 34.6861 31.0452 35.0425L33.3467 39.6673C33.7264 39.3844 34.0349 39.0167 34.2476 38.5936C34.4603 38.1705 34.5713 37.7035 34.5718 37.2299V22.4887C34.5718 21.9913 34.7694 21.5143 35.1211 21.1626C35.4728 20.8109 35.9498 20.6133 36.4472 20.6133C36.9446 20.6133 37.4217 20.8109 37.7734 21.1626C38.1251 21.5143 38.3227 21.9913 38.3227 22.4887V32.4884C38.3227 31.991 38.5202 31.5141 38.8719 31.1624C39.2235 30.8107 39.7005 30.6132 40.1978 30.6132C40.6952 30.6132 41.1721 30.8107 41.5238 31.1624C41.8754 31.5141 42.073 31.991 42.073 32.4884V33.1135C42.073 32.6162 42.2705 32.1394 42.6221 31.7877C42.9738 31.4361 43.4506 31.2386 43.9479 31.2386C44.4451 31.2386 44.922 31.4361 45.2736 31.7877C45.6253 32.1394 45.8228 32.6162 45.8228 33.1135V34.3638C45.8228 33.8665 46.0203 33.3896 46.3719 33.038C46.7235 32.6864 47.2004 32.4889 47.6977 32.4889C48.195 32.4889 48.6718 32.6864 49.0234 33.038C49.3751 33.3896 49.5726 33.8665 49.5726 34.3638V44.4758C49.5716 45.317 49.3225 46.1391 48.8565 46.8394" fill="white"/>
<path d="M33.8134 46.9057L32.0632 45.3536C31.189 44.568 30.5123 43.5873 30.0882 42.4912L27.5726 35.5536C27.4713 35.2708 27.4792 34.9604 27.5948 34.6831C27.7105 34.4059 27.9255 34.1819 28.1978 34.055C28.4827 33.9221 28.7933 33.8538 29.1077 33.8548C29.5084 33.8565 29.9009 33.9682 30.2426 34.1776C30.5842 34.387 30.8618 34.6861 31.0452 35.0425L33.3467 39.6673C33.7264 39.3844 34.0349 39.0167 34.2476 38.5936C34.4603 38.1705 34.5713 37.7035 34.5718 37.2299V22.4887C34.5718 21.9913 34.7694 21.5143 35.1211 21.1626C35.4728 20.8109 35.9498 20.6133 36.4472 20.6133C36.9446 20.6133 37.4217 20.8109 37.7734 21.1626C38.1251 21.5143 38.3227 21.9913 38.3227 22.4887V32.4884C38.3227 31.991 38.5202 31.5141 38.8719 31.1624C39.2235 30.8107 39.7005 30.6132 40.1978 30.6132C40.6952 30.6132 41.1721 30.8107 41.5238 31.1624C41.8754 31.5141 42.073 31.991 42.073 32.4884V33.1135C42.073 32.6162 42.2705 32.1394 42.6221 31.7877C42.9738 31.4361 43.4506 31.2386 43.9479 31.2386C44.4451 31.2386 44.922 31.4361 45.2736 31.7877C45.6253 32.1394 45.8228 32.6162 45.8228 33.1135V34.3638C45.8228 33.8665 46.0203 33.3896 46.3719 33.038C46.7235 32.6864 47.2004 32.4889 47.6977 32.4889C48.195 32.4889 48.6718 32.6864 49.0234 33.038C49.3751 33.3896 49.5726 33.8665 49.5726 34.3638V44.4758C49.5716 45.317 49.3225 46.1391 48.8565 46.8394" stroke="black" stroke-width="1.07045" stroke-linecap="round" stroke-linejoin="round"/>
<path d="M38.3262 32.4883V34.3632" stroke="black" stroke-width="1.07045" stroke-linecap="round" stroke-linejoin="round"/>
<path d="M42.0957 32.4883V34.3632" stroke="black" stroke-width="1.07045" stroke-linecap="round" stroke-linejoin="round"/>
<path d="M45.7969 33.668V35.5429" stroke="black" stroke-width="1.07045" stroke-linecap="round" stroke-linejoin="round"/>
</svg>
