<svg width="182" height="44" viewBox="0 0 182 44" fill="none" xmlns="http://www.w3.org/2000/svg">
<path d="M45.7514 40.838C43.4083 40.838 41.3407 40.235 39.5489 39.0289C37.7571 37.8229 36.3615 36.2034 35.3622 34.1703C34.3629 32.1028 33.8633 29.7769 33.8633 27.1925C33.8633 24.5047 34.4491 22.1099 35.6207 20.0079C36.7922 17.8715 38.4462 16.183 40.5827 14.9425C42.7535 13.702 45.3035 13.0818 48.2324 13.0818C51.1958 13.0818 53.7113 13.702 55.7788 14.9425C57.8808 16.1486 59.4831 17.8198 60.5857 19.9562C61.7229 22.0582 62.2914 24.4186 62.2914 27.0374V37.8382C62.2914 39.1524 61.2261 40.2178 59.9119 40.2178H56.5541C55.3837 40.2178 54.4349 39.269 54.4349 38.0986V36.108C54.4349 36.0369 54.3774 35.9794 54.3063 35.9794C54.2583 35.9794 54.2144 36.0062 54.1919 36.0486C53.7148 36.9517 53.1067 37.7728 52.3674 38.5121C51.6093 39.2357 50.679 39.8043 49.5763 40.2178C48.5081 40.6313 47.2331 40.838 45.7514 40.838ZM48.129 33.9119C49.3351 33.9119 50.3861 33.619 51.282 33.0332C52.2124 32.4129 52.9188 31.5687 53.4012 30.5005C53.8836 29.4323 54.1248 28.2435 54.1248 26.9341C54.1248 25.6591 53.8836 24.5047 53.4012 23.471C52.9188 22.4372 52.2124 21.6275 51.282 21.0417C50.3861 20.4214 49.3351 20.1113 48.129 20.1113C46.8885 20.1113 45.8031 20.4214 44.8727 21.0417C43.9424 21.6275 43.236 22.4372 42.7535 23.471C42.2711 24.5047 42.0299 25.6591 42.0299 26.9341C42.0299 28.2435 42.2711 29.4323 42.7535 30.5005C43.236 31.5687 43.9424 32.4129 44.8727 33.0332C45.8031 33.619 46.8885 33.9119 48.129 33.9119Z" fill="#F1F1F1"/>
<path d="M102.549 40.2175C100.339 40.2175 98.5469 38.4257 98.5469 36.2155V28.4278C98.5469 26.2175 100.339 24.4258 102.549 24.4258C104.759 24.4258 106.551 26.2175 106.551 28.4278V36.2154C106.551 38.4257 104.759 40.2175 102.549 40.2175Z" fill="#F1F1F1"/>
<path d="M115.525 40.2177C113.315 40.2177 111.523 38.4259 111.523 36.2157V23.4526C111.523 21.2423 113.315 19.4506 115.525 19.4506C117.736 19.4506 119.527 21.2423 119.527 23.4526V36.2157C119.527 38.4259 117.736 40.2177 115.525 40.2177Z" fill="#34A853"/>
<path d="M68.69 36.5404C67.8537 36.5404 67.1758 35.8624 67.1758 35.0261V24.97C67.1758 22.7647 67.7099 20.7661 68.7781 18.9743C69.8463 17.1825 71.3625 15.7524 73.3266 14.6842C75.3252 13.616 77.6856 13.0819 80.4078 13.0819C83.1645 13.0819 85.5076 13.616 87.4373 14.6842C89.4014 15.7524 90.9004 17.1825 91.9341 18.9743C92.9679 20.7661 93.4847 22.7647 93.4847 24.97V35.0261C93.4847 35.8624 92.8068 36.5404 91.9705 36.5404L89.479 36.5404L86.9874 36.5404C86.1511 36.5404 85.4732 35.8624 85.4732 35.0261V25.1768C85.4732 24.2464 85.2492 23.4022 84.8012 22.6441C84.3533 21.8516 83.733 21.2313 82.9405 20.7834C82.1824 20.3009 81.3209 20.0597 80.3561 20.0597C79.3568 20.0597 78.4609 20.3009 77.6684 20.7834C76.9103 21.2313 76.3072 21.8516 75.8593 22.6441C75.4113 23.4022 75.1874 24.2464 75.1874 25.1768V35.0261C75.1874 35.8624 74.5094 36.5404 73.6731 36.5404L71.1816 36.5404L68.69 36.5404Z" fill="#F1F1F1"/>
<rect x="67.1758" y="37.1893" width="8.004" height="3.02854" rx="1.51427" fill="#34A853"/>
<rect x="85.5625" y="37.1891" width="8.004" height="3.02854" rx="1.51427" fill="#F15B25"/>
<rect x="98.543" y="13.8262" width="8.004" height="8.004" rx="4.002" fill="#34A853"/>
<rect x="111.523" y="13.8262" width="8.004" height="3.02854" rx="1.51427" fill="#F1F1F1"/>
<circle cx="156.085" cy="27.238" r="10.0591" stroke="#F15B25" stroke-width="7.1387"/>
<path d="M151.758 24.127L156.98 32.8811L159.672 30.9642L158.102 25.1494C167.151 20.913 172.525 18.7119 181.394 12.114C178.106 14.2773 157.382 23.3629 151.758 24.127Z" fill="#34A853"/>
<path d="M128.51 40.217C126.297 40.217 124.504 38.4235 124.504 36.2112V21.5061C124.504 19.094 125.193 17.1988 126.571 15.8204C127.95 14.4421 129.862 13.7529 132.309 13.7529H136.754C138.552 13.7529 140.01 15.2108 140.01 17.0092C140.01 18.8077 138.552 20.2656 136.754 20.2656H134.273C133.79 20.2656 133.377 20.4379 133.032 20.7824C132.688 21.0926 132.515 21.5061 132.515 22.0229V36.2112C132.515 38.4235 130.722 40.217 128.51 40.217Z" fill="#F1F1F1"/>
<path fill-rule="evenodd" clip-rule="evenodd" d="M3.20598 7.48096L22.626 0.184342C23.2364 -0.0450311 23.859 -0.0497519 24.4413 0.111587L32.0545 40.0095C31.5719 40.3741 30.9912 40.599 30.34 40.6104L9.5976 40.9783C7.44355 41.0169 5.42584 40.0431 5.03596 38.0006L0.0613963 11.9293C-0.328483 9.88688 1.18799 8.23906 3.20598 7.48096ZM25.3899 0.538676C25.5249 0.624761 25.9567 0.996034 26.0814 1.09906L33.2153 38.4869C33.1372 38.6285 32.8723 39.1328 32.779 39.2625L25.3899 0.538676ZM26.0814 1.09906C26.6359 1.65972 27.04 2.3856 27.188 3.16231L33.4849 36.1623C33.6329 36.9382 33.5246 37.7618 33.2153 38.4869L26.0814 1.09906Z" fill="#F1F1F1"/>
<path d="M15.5591 20.6842L20.0657 20.901C25.0004 21.1402 26.6987 23.7437 27.167 26.401C27.8919 30.5133 25.3326 34.1282 19.0691 35.2322C12.4893 36.3919 8.96751 33.6206 8.53261 31.1531C8.30958 29.8878 9.07084 28.8404 10.3362 28.6173C13.1516 28.1211 13.1488 32.3617 18.4 31.4362C21.0889 30.9622 22.3136 29.2134 22.046 27.695C21.8843 26.7776 21.263 25.8434 19.4135 25.7127L13.2992 25.2574C8.37388 24.8861 7.06257 22.4427 6.63324 20.0069C5.74114 14.9455 10.0884 12.2223 14.4855 11.4473C18.5346 10.7336 23.7127 12.1693 24.248 15.2061C24.4766 16.5031 23.5032 17.4575 22.2379 17.6805C19.8337 18.1043 19.68 14.6414 14.84 15.4945C12.4359 15.9182 11.3024 17.2596 11.5812 18.8413C11.86 20.4229 13.8472 20.5945 15.5591 20.6842Z" fill="#052973"/>
</svg>
